<?xml version="1.0" encoding="UTF-8" standalone="no"?>
        <!-- 
        Hawsie number #000.
        Made on 02-03-2022 at 2022-03-02 11:41:46.225979-->
    <svg height="1600" width="1600">
    <!-- Background -->
        <path d="M 0 0 L 1600 0 L 1600 1600 L 0 1600 Z"
        fill="rgb(78,146,89)" stroke="Black" stroke-width="0px"/>
        <!-- Face -->
        <path d="M 300 300 L 460 80 L 460 300 L 620 80 L 620 300 L 1220 300 C 1260 300 1300 340 1300 380 L 1300 780 L 780 780 C 760 780 740 800 740 820 L 740 1160 C 740 1180 760 1200 780 1200 L 1300 1200 C 1300 1260 1260 1300 1200 1300 L 400 1300 C 340 1300 300 1260 300 1200 Z" 
        fill="rgb(121,156,93)" stroke="black" stroke-width="10" />
        <!-- Body -->
        <path d="M 300 1100 L -20 1100 L -20 1620 L 540 1620 L 540 1300 L 400 1300 C 340 1300 300 1260 300 1200 Z" 
        fill="rgb(121,156,93)" stroke="black" stroke-width="10" /><!-- Teeth -->
        <path d="M 1295 780 C 1295 825 1220 825 1220 780 C 1220 825 1145 825 1145 780 C 1145 825 1070 825 1070 780 C 1070 825 995 825 995 780 C 995 825 920 825 920 780 C 920 825 845 825 845 780 Z M 1295 1200 C 1295 1155 1220 1155 1220 1200 C 1220 1155 1135 1155 1135 1200 C 1135 1155 1060 1155 1060 1200 C 1060 1155 985 1155 985 1200 C 985 1155 910 1155 910 1200 C 910 1155 835 1155 835 1200 Z"
        fill="white" stroke="black" stroke-width="10"/><!-- Ears -->
        <path d="M 320 300 L 440 140 L 440 300 Z M 480 300 L 600 140 L 600 300 Z"
        fill="#ffbec1" stroke="black" stroke-width="10" />
        <!-- Eyes -->
        <!-- Outer -->
        <path d="M 540 500 C 540 440 560 380 620 380 C 680 380 700 440 700 500 C 700 560 680 620 620 620 C 560 620 540 560 540 500 C 540 440 520 380 460 380 C 400 380 380 440 380 500 C 380 560 400 620 460 620 C 520 620 540 560 540 500 Z"
            fill="rgb(75,118,113)" stroke="black" stroke-width="10"/>
        <!-- Pupils -->
        <path d="M 440 520 C 440 500 440 460 480 460 C 520 460 520 500 520 520 C 520 540 520 580 480 580 C 440 580 440 540 440 520 Z"
            fill="black" stroke="black" stroke-width="10"/>
        <path d="M 600 520 C 600 500 600 460 640 460 C 680 460 680 500 680 520 C 680 540 680 580 640 580 C 600 580 600 540 600 520 Z"
            fill="black" stroke="black" stroke-width="10"/><!-- Mane -->
        <path d="M 500 245 C 498 241 490 241 485 245 C 482 243 490 229 494 232 C 480 226 471 217 460 244 L 460 300 Z 
        M 340 245 C 328 250 332 234 300 243 C 311 234 296 221 318 210 C 274 227 270 235 259 257 C 236 290 193 214 225 329 C 210.3333 331.3333 199 381 173 302 C 161.3333 338 149.6667 374 204 469 C 190 488 185 523 141 466 C 169 547 128 537 206 634 C 184.3333 649.3333 162.6667 664.6667 127 618 C 147 679 126 717 227 757 C 210 785 201 828 133 798 C 143 844 180 885 216 918 C 191 907 159 933 127 895 C 150.6667 931.3333 132 970 198 1004 C 183 1014 197 1084 132 1007 C 137 1042 152 1079 173 1100 L 300 1100 L 300 300 Z 
        M 760 300 C 796 262 735 255 777 219 C 720 230 703 213 648 239 C 659 221 647 228 676 203 C 649 207 630 222 620 240 L 620 300 Z"
        fill="rgb(22.75,41.25,15.5)" stroke="Black" stroke-width="Black" />
</svg>