<?xml version="1.0" encoding="UTF-8" standalone="no"?>
        <!-- 
        Hawsie number #000.
        Made on 01-03-2022 at 2022-03-01 14:09:01.364325-->
    <svg height="1600" width="1600">
    
        <!-- Spots -->
        <path d="M 62 1100 C 183 1266 45 1342 0 1318 L 0 1100 Z M 103 1480 C 51 1394 255 1345 345 1435 C 410 1500 151 1551 103 1480 Z" 
        fill="rgb(17.0,14.75,33.25)" stroke="black" stroke-width="10" />
        <!-- Eyes -->
        <!-- Outer -->
        <path d="M 540 500 C 540 440 560 380 620 380 C 680 380 700 440 700 500 C 700 560 680 620 620 620 C 560 620 540 560 540 500 C 540 440 520 380 460 380 C 400 380 380 440 380 500 C 380 560 400 620 460 620 C 520 620 540 560 540 500 Z"
            fill="rgb(186,84,86)" stroke="black" stroke-width="10"/>
        <!-- Pupils -->
        <path d="M 440 520 C 440 500 440 460 480 460 C 520 460 520 500 520 520 C 520 540 520 580 480 580 C 440 580 440 540 440 520 Z"
            fill="black" stroke="black" stroke-width="10"/>
        <path d="M 600 520 C 600 500 600 460 640 460 C 680 460 680 500 680 520 C 680 540 680 580 640 580 C 600 580 600 540 600 520 Z"
            fill="black" stroke="black" stroke-width="10"/><!-- Glasses -->
            <path d="M 295 400 L 715 400 L 715 520 C 715 620 540 620 540 530 C 540 640 365 620 365 520 L 365 420 L 295 420 L 295 420 L 295 400 M 385 420 L 385 520 C 385 600 530 610 530 510 L 530 420 Z M 550 420 C 550 450 550 480 550 510 C 550 610 695 610 695 510 L 695 420 Z"
            fill="aliceblue" stroke="black" stroke-width="10"/><!-- Mane -->
        <path d="M 500 245 C 498 241 490 241 485 245 C 482 243 490 229 494 232 C 480 226 471 217 460 244 L 460 300 Z 
        M 340 245 C 328 250 332 234 300 243 C 311 234 296 221 318 210 C 274 227 270 235 259 257 C 236 290 193 214 225 329 C 210.3333 331.3333 199 381 173 302 C 161.3333 338 149.6667 374 204 469 C 190 488 185 523 141 466 C 169 547 128 537 206 634 C 184.3333 649.3333 162.6667 664.6667 127 618 C 147 679 126 717 227 757 C 210 785 201 828 133 798 C 143 844 180 885 216 918 C 191 907 159 933 127 895 C 150.6667 931.3333 132 970 198 1004 C 183 1014 197 1084 132 1007 C 137 1042 152 1079 173 1100 L 300 1100 L 300 300 Z 
        M 760 300 C 796 262 735 255 777 219 C 720 230 703 213 648 239 C 659 221 647 228 676 203 C 649 207 630 222 620 240 L 620 300 Z"
        fill="rgb(35.0,34.5,19.25)" stroke="Black" stroke-width="Black" />
</svg>